# xmcd
#
# Track frame offsets:
#	150
#	14409
#	30710
#	48257
#	62812
#	79223
#	89948
#	112316
#	128617
#	142741
#	157036
#	175852
#
# Disc length: 2561 seconds
#
# Revision: 0
# Processed by: cddbd v1.5.2PL0 Copyright (c) Steve Scherf et al.
# Submitted via: EasyCDDAExtractor 12.0.1.1
#
DISCID=a409ff0c
DTITLE=The Sleeping - What It Takes
DYEAR=2009
DGENRE=Alternative
TTITLE0=You'll be a corpse before your time
TTITLE1=Friday Night
TTITLE2=Bomb the World
TTITLE3=Shallow Lungs
TTITLE4=Running Faster
TTITLE5=Ripped Dress
TTITLE6=Should Have Let me Leave
TTITLE7=He only see where he walks
TTITLE8=Refusive Relationship
TTITLE9=Bad Religion
TTITLE10=Anyone Night Stand
TTITLE11=Deadbeast
EXTD=
EXTT0=
EXTT1=
EXTT2=
EXTT3=
EXTT4=
EXTT5=
EXTT6=
EXTT7=
EXTT8=
EXTT9=
EXTT10=
EXTT11=
PLAYORDER=
